<svg height="512pt" viewBox="0 0 512 512" width="512pt" xmlns="http://www.w3.org/2000/svg"><path d="m133.332031 213.332031h-96c-20.585937 0-37.332031-16.746093-37.332031-37.332031v-32c0-20.585938 16.746094-37.332031 37.332031-37.332031h96c20.589844 0 37.335938 16.746093 37.335938 37.332031v32c0 20.585938-16.746094 37.332031-37.335938 37.332031zm-96-74.664062c-2.941406 0-5.332031 2.386719-5.332031 5.332031v32c0 2.945312 2.390625 5.332031 5.332031 5.332031h96c2.945313 0 5.335938-2.386719 5.335938-5.332031v-32c0-2.945312-2.390625-5.332031-5.335938-5.332031zm0 0"/><path d="m85.332031 512c-8.832031 0-16-7.167969-16-16v-298.667969c0-8.832031 7.167969-16 16-16s16 7.167969 16 16v298.667969c0 8.832031-7.167969 16-16 16zm0 0"/><path d="m85.332031 138.667969c-8.832031 0-16-7.167969-16-16v-106.667969c0-8.832031 7.167969-16 16-16s16 7.167969 16 16v106.667969c0 8.832031-7.167969 16-16 16zm0 0"/><path d="m474.667969 213.332031h-96c-20.589844 0-37.335938-16.746093-37.335938-37.332031v-32c0-20.585938 16.746094-37.332031 37.335938-37.332031h96c20.585937 0 37.332031 16.746093 37.332031 37.332031v32c0 20.585938-16.746094 37.332031-37.332031 37.332031zm-96-74.664062c-2.945313 0-5.335938 2.386719-5.335938 5.332031v32c0 2.945312 2.390625 5.332031 5.335938 5.332031h96c2.941406 0 5.332031-2.386719 5.332031-5.332031v-32c0-2.945312-2.390625-5.332031-5.332031-5.332031zm0 0"/><path d="m426.667969 512c-8.832031 0-16-7.167969-16-16v-298.667969c0-8.832031 7.167969-16 16-16s16 7.167969 16 16v298.667969c0 8.832031-7.167969 16-16 16zm0 0"/><path d="m426.667969 138.667969c-8.832031 0-16-7.167969-16-16v-106.667969c0-8.832031 7.167969-16 16-16s16 7.167969 16 16v106.667969c0 8.832031-7.167969 16-16 16zm0 0"/><path d="m304 426.667969h-96c-20.585938 0-37.332031-16.746094-37.332031-37.335938v-32c0-20.585937 16.746093-37.332031 37.332031-37.332031h96c20.585938 0 37.332031 16.746094 37.332031 37.332031v32c0 20.589844-16.746093 37.335938-37.332031 37.335938zm-96-74.667969c-2.945312 0-5.332031 2.390625-5.332031 5.332031v32c0 2.945313 2.386719 5.335938 5.332031 5.335938h96c2.945312 0 5.332031-2.390625 5.332031-5.335938v-32c0-2.941406-2.386719-5.332031-5.332031-5.332031zm0 0"/><path d="m256 352c-8.832031 0-16-7.167969-16-16v-320c0-8.832031 7.167969-16 16-16s16 7.167969 16 16v320c0 8.832031-7.167969 16-16 16zm0 0"/><path d="m256 512c-8.832031 0-16-7.167969-16-16v-85.332031c0-8.832031 7.167969-16 16-16s16 7.167969 16 16v85.332031c0 8.832031-7.167969 16-16 16zm0 0"/></svg>